<?xml version="1.0" standalone="no"?>
<!DOCTYPE svg PUBLIC "-//W3C//DTD SVG 20010904//EN"
 "http://www.w3.org/TR/2001/REC-SVG-20010904/DTD/svg10.dtd">
<svg version="1.0" xmlns="http://www.w3.org/2000/svg"
 width="70.000000pt" height="60.000000pt" viewBox="0 0 70.000000 60.000000"
 preserveAspectRatio="xMidYMid meet">

<g transform="translate(0.000000,60.000000) scale(0.100000,-0.100000)"
fill="#000000" stroke="none">
<path d="M304 506 c-54 -24 -78 -71 -83 -155 -2 -50 -10 -85 -22 -105 -10 -17
-19 -39 -19 -48 0 -21 29 -38 67 -38 21 0 32 -8 45 -30 36 -62 100 -62 136 0
14 24 24 30 53 30 60 0 75 34 39 92 -14 23 -20 51 -20 91 0 32 -6 73 -14 91
-28 66 -117 102 -182 72z m107 -36 c31 -17 49 -64 49 -132 0 -45 6 -72 20 -96
11 -18 20 -35 20 -37 0 -3 -63 -5 -140 -5 -77 0 -140 2 -140 5 0 3 9 22 20 42
14 26 20 57 20 101 0 35 5 72 10 82 22 41 98 62 141 40z m-13 -322 c-8 -22
-37 -34 -55 -22 -33 21 -26 34 17 34 28 0 40 -4 38 -12z"/>
</g>
</svg>
