<?xml version="1.0" standalone="no"?>
<!DOCTYPE svg PUBLIC "-//W3C//DTD SVG 20010904//EN"
 "http://www.w3.org/TR/2001/REC-SVG-20010904/DTD/svg10.dtd">
<svg version="1.0" xmlns="http://www.w3.org/2000/svg"
 width="512.000000pt" height="512.000000pt" viewBox="0 0 512.000000 512.000000"
 preserveAspectRatio="xMidYMid meet">

<g transform="translate(0.000000,512.000000) scale(0.100000,-0.100000)"
fill="#000000" stroke="none">
<path d="M1250 4465 c-209 -47 -396 -214 -467 -417 -35 -99 -43 -248 -18 -351
43 -180 163 -336 321 -419 109 -57 172 -72 304 -72 99 0 126 4 194 28 l80 27
348 -348 c191 -191 348 -350 347 -353 0 -3 -154 -162 -343 -354 l-343 -349
-89 29 c-77 25 -104 29 -199 29 -76 -1 -129 -7 -170 -19 -278 -83 -465 -331
-465 -616 0 -285 187 -533 465 -616 43 -13 93 -18 175 -18 100 0 126 4 195 28
100 34 177 81 243 146 182 180 243 430 160 667 l-21 62 1182 1186 c721 725
1189 1202 1201 1225 36 71 21 180 -33 238 -61 66 -174 86 -252 45 -24 -13
-304 -286 -719 -703 l-679 -682 -350 350 -351 351 23 70 c136 415 -147 830
-579 847 -61 2 -119 -2 -160 -11z m228 -434 c162 -83 162 -299 0 -382 -45 -23
-125 -25 -176 -4 -167 71 -169 317 -2 389 50 22 133 20 178 -3z m0 -2560 c162
-83 162 -299 0 -382 -45 -23 -125 -25 -176 -4 -167 71 -169 317 -2 389 50 22
133 20 178 -3z"/>
<path d="M3042 2340 c-84 -20 -162 -116 -162 -199 0 -97 -16 -79 583 -679 331
-332 578 -572 602 -585 78 -41 191 -21 252 45 51 55 69 166 37 231 -9 18 -271
287 -582 600 -525 526 -571 569 -616 582 -54 16 -65 17 -114 5z"/>
</g>
</svg>
