<?xml version="1.0" standalone="no"?>
<!DOCTYPE svg PUBLIC "-//W3C//DTD SVG 20010904//EN"
 "http://www.w3.org/TR/2001/REC-SVG-20010904/DTD/svg10.dtd">
<svg version="1.0" xmlns="http://www.w3.org/2000/svg"
 width="920.000000pt" height="483.000000pt" viewBox="0 0 920.000000 483.000000"
 preserveAspectRatio="xMidYMid meet">

<g transform="translate(0.000000,483.000000) scale(0.100000,-0.100000)"
fill="#000000" stroke="none">
<path d="M2495 2832 c-122 -42 -209 -118 -263 -231 -61 -127 -56 -281 12 -402
77 -134 224 -219 382 -219 120 0 233 49 316 138 157 168 157 426 0 594 -54 57
-105 90 -187 118 -74 25 -190 26 -260 2z"/>
<path d="M4555 2836 c-197 -64 -317 -225 -316 -423 1 -253 204 -445 458 -431
174 10 319 114 385 278 17 44 22 75 22 155 0 80 -5 111 -22 155 -45 113 -140
208 -249 251 -71 28 -216 36 -278 15z"/>
<path d="M6444 2832 c-225 -80 -347 -301 -289 -525 21 -79 49 -131 103 -189
168 -180 455 -185 625 -11 95 96 132 195 125 333 -3 73 -9 97 -40 161 -45 94
-110 159 -207 207 -67 33 -82 37 -170 39 -72 2 -109 -2 -147 -15z"/>
</g>
</svg>
