<svg xmlns="http://www.w3.org/2000/svg" viewBox="0 0 24 24">
  <path fill="#FF0000" d="M20.51 7.33c-0.67-0.92-1.63-1.58-2.82-1.92-1.19-0.34-2.45-0.24-3.56 0.28-0.34-0.45-0.78-0.81-1.28-1.04-0.99-0.45-2.11-0.47-3.13-0.06-1.02 0.41-1.84 1.2-2.31 2.22-0.47 1.02-0.5 2.18-0.08 3.22 0.26 0.65 0.69 1.21 1.22 1.63-0.56 0.38-1.03 0.89-1.37 1.5-0.53 0.95-0.68 2.05-0.43 3.09 0.25 1.04 0.87 1.94 1.74 2.54 0.87 0.6 1.92 0.88 2.95 0.77 0.52-0.05 1.02-0.19 1.48-0.42 0.33 0.57 0.8 1.05 1.35 1.4 1.1 0.7 2.42 0.85 3.63 0.41 1.21-0.44 2.16-1.38 2.61-2.58 0.45-1.2 0.36-2.53-0.24-3.66-0.3-0.57-0.75-1.04-1.28-1.38 0.61-0.34 1.12-0.83 1.48-1.42 0.71-1.16 0.84-2.56 0.34-3.82zM12 11c0.55 0 1 0.45 1 1s-0.45 1-1 1-1-0.45-1-1 0.45-1 1-1z"/>
</svg>