<?xml version="1.0" standalone="no"?>
<!DOCTYPE svg PUBLIC "-//W3C//DTD SVG 20010904//EN"
 "http://www.w3.org/TR/2001/REC-SVG-20010904/DTD/svg10.dtd">
<svg version="1.0" xmlns="http://www.w3.org/2000/svg"
 width="78.000000pt" height="72.000000pt" viewBox="0 0 78.000000 72.000000"
 preserveAspectRatio="xMidYMid meet">

<g transform="translate(0.000000,72.000000) scale(0.100000,-0.100000)"
fill="#000000" stroke="none">
<path d="M321 665 c-70 -20 -111 -46 -160 -101 -72 -82 -94 -203 -56 -314 25
-76 109 -160 185 -185 123 -42 241 -15 331 74 126 127 126 315 0 442 -83 83
-193 113 -300 84z m204 -150 c0 -13 -8 -21 -22 -23 -19 -3 -23 1 -23 23 0 22
4 26 23 23 14 -2 22 -10 22 -23z m-110 -80 c22 -21 25 -33 25 -98 l0 -74 -69
-1 c-72 -2 -83 4 -95 45 -11 34 32 73 79 73 29 0 36 3 33 18 -4 22 -46 29 -54
8 -9 -23 -44 -20 -44 3 0 49 85 67 125 26z m113 -93 c3 -109 2 -113 -23 -138
-14 -14 -33 -24 -43 -22 -25 5 -27 34 -2 41 19 5 20 13 20 122 0 115 0 116 23
113 21 -3 22 -7 25 -116z"/>
<path d="M327 333 c-19 -18 -6 -34 25 -31 44 4 53 38 10 38 -16 0 -32 -3 -35
-7z"/>
</g>
</svg>
