<?xml version="1.0" standalone="no"?>
<!DOCTYPE svg PUBLIC "-//W3C//DTD SVG 20010904//EN"
 "http://www.w3.org/TR/2001/REC-SVG-20010904/DTD/svg10.dtd">
<svg version="1.0" xmlns="http://www.w3.org/2000/svg"
 width="196.000000pt" height="66.000000pt" viewBox="0 0 196.000000 66.000000"
 preserveAspectRatio="xMidYMid meet">

<g transform="translate(0.000000,66.000000) scale(0.100000,-0.100000)"
fill="#000000" stroke="none">
<path d="M457 514 c-4 -4 -7 -40 -7 -80 l0 -73 -77 -3 c-61 -2 -78 -6 -78 -18
0 -12 17 -16 77 -18 l77 -3 3 -77 c2 -60 6 -77 18 -77 12 0 16 17 18 77 l3 77
77 3 c60 2 77 6 77 18 0 12 -17 16 -77 18 l-77 3 -3 76 c-3 70 -13 95 -31 77z"/>
<path d="M1010 390 c0 -53 4 -90 10 -90 6 0 10 18 10 40 0 33 3 40 20 40 11 0
20 4 20 9 0 5 -9 11 -20 14 -15 4 -20 14 -20 41 0 20 -4 36 -10 36 -6 0 -10
-37 -10 -90z"/>
<path d="M1500 355 c0 -104 2 -125 15 -125 13 0 15 21 15 125 0 104 -2 125
-15 125 -13 0 -15 -21 -15 -125z"/>
<path d="M1110 430 l0 -40 85 0 c50 0 85 4 85 10 0 6 -30 10 -70 10 -56 0 -70
3 -70 15 0 12 14 15 70 15 56 0 70 3 70 15 0 12 -16 15 -85 15 l-85 0 0 -40z"/>
<path d="M850 400 l0 -60 60 0 60 0 0 60 0 60 -60 0 -60 0 0 -60z m90 -5 c0
-32 -2 -35 -30 -35 -28 0 -30 3 -30 35 0 32 2 35 30 35 28 0 30 -3 30 -35z"/>
<path d="M1340 440 c0 -5 21 -10 46 -10 42 0 45 -1 38 -22 -10 -33 -40 -73
-69 -92 -14 -9 -23 -21 -19 -27 7 -12 50 13 77 45 20 23 31 47 41 89 l6 27
-60 0 c-33 0 -60 -4 -60 -10z"/>
<path d="M1085 360 c4 -6 53 -10 116 -10 66 0 109 4 109 10 0 6 -45 10 -116
10 -74 0 -113 -4 -109 -10z"/>
<path d="M1110 326 c0 -12 16 -16 73 -19 l72 -3 -72 -2 -73 -2 0 -35 0 -35 91
0 c68 0 90 3 87 13 -3 8 -30 13 -76 15 -82 3 -100 19 -19 17 77 -2 89 3 85 34
-3 25 -5 26 -85 29 -68 2 -83 0 -83 -12z"/>
<path d="M880 280 l0 -40 80 0 c47 0 80 4 80 10 0 6 -30 10 -70 10 l-70 0 0
30 c0 17 -4 30 -10 30 -5 0 -10 -18 -10 -40z"/>
</g>
</svg>
