<svg xmlns="http://www.w3.org/2000/svg" viewBox="0 0 24 24" fill="#f00"><path d="M10,15l5.19-3L10,9V15z M21.56,7.17C21.67,7.64,21.83,8.27,21.91,8.97C21.97,9.6,22,10.55,22,12s-0.03,2.4-0.09,3.03 c-0.08,0.7-0.24,1.33-0.35,1.8c-0.12,0.48-0.28,0.85-0.5,1.23c-0.34,0.6-0.78,1.06-1.35,1.33c-0.38,0.18-0.75,0.32-1.23,0.4 c-0.47,0.11-1.1,0.24-1.8,0.32C15.97,19.97,15,20,12,20s-3.97-0.03-4.68-0.11c-0.7-0.08-1.33-0.21-1.8-0.32 c-0.48-0.08-0.85-0.22-1.23-0.4c-0.57-0.27-1.01-0.73-1.35-1.33c-0.22-0.38-0.38-0.75-0.5-1.23c-0.11-0.47-0.24-1.1-0.32-1.8 C2.03,14.4,2,13.5,2,12s0.03-2.4,0.09-3.03c0.08-0.7,0.24-1.33,0.35-1.8c0.12-0.48,0.28-0.85,0.5-1.23 c0.34-0.6,0.78-1.06,1.35-1.33c0.38-0.18,0.75-0.32,1.23-0.4C5.97,4.03,6.6,3.9,7.32,3.82C8.03,3.74,9,3.71,12,3.71 s3.97,0.03,4.68,0.11c0.7,0.08,1.33,0.21,1.8,0.32c0.48,0.08,0.85,0.22,1.23,0.4c0.57,0.27,1.01,0.73,1.35,1.33 C21.28,6.32,21.44,6.69,21.56,7.17z"></path></svg>