<?xml version="1.0" standalone="no"?>
<!DOCTYPE svg PUBLIC "-//W3C//DTD SVG 20010904//EN"
 "http://www.w3.org/TR/2001/REC-SVG-20010904/DTD/svg10.dtd">
<svg version="1.0" xmlns="http://www.w3.org/2000/svg"
 width="512.000000pt" height="512.000000pt" viewBox="0 0 512.000000 512.000000"
 preserveAspectRatio="xMidYMid meet">

<g transform="translate(0.000000,512.000000) scale(0.100000,-0.100000)"
fill="#000000" stroke="none">
<path d="M2778 4530 c-67 -12 -130 -52 -163 -105 l-30 -48 -5 -451 -5 -451
-160 3 c-496 11 -924 -101 -1270 -329 -134 -88 -309 -260 -407 -399 -201 -284
-337 -668 -388 -1090 -32 -265 -30 -784 3 -863 21 -50 85 -117 132 -138 55
-25 138 -24 192 2 52 25 84 62 125 143 59 119 141 232 237 327 148 149 303
241 526 312 229 73 442 99 780 95 l230 -3 5 -390 5 -390 26 -45 c34 -57 53
-74 114 -101 37 -17 60 -20 101 -16 117 12 83 -18 1032 930 594 594 889 895
902 923 14 27 20 61 20 105 0 132 41 85 -941 1066 -512 511 -897 887 -914 894
-45 18 -106 25 -147 19z m897 -2740 l-770 -770 -5 318 -5 318 -30 59 c-63 124
-114 137 -545 137 -394 0 -620 -30 -887 -117 -331 -109 -585 -291 -776 -555
-17 -24 -18 -21 -12 134 26 708 250 1245 635 1528 192 141 400 225 693 281 99
19 149 21 437 22 362 0 357 -1 420 71 65 75 65 69 68 498 l3 390 772 -772 772
-772 -770 -770z"/>
</g>
</svg>
