<?xml version="1.0" standalone="no"?>
<!DOCTYPE svg PUBLIC "-//W3C//DTD SVG 20010904//EN"
 "http://www.w3.org/TR/2001/REC-SVG-20010904/DTD/svg10.dtd">
<svg version="1.0" xmlns="http://www.w3.org/2000/svg"
 width="512.000000pt" height="512.000000pt" viewBox="0 0 512.000000 512.000000"
 preserveAspectRatio="xMidYMid meet">

<g transform="translate(0.000000,512.000000) scale(0.100000,-0.100000)"
fill="#000000" stroke="none">
<path d="M2447 5109 c-99 -23 -182 -91 -232 -189 -52 -102 -67 -204 -88 -605
-17 -311 -280 -655 -740 -966 l-102 -70 -7 55 c-11 86 -44 150 -104 205 -91
83 -98 85 -499 89 -376 4 -439 -2 -511 -43 -57 -33 -118 -103 -140 -161 -18
-47 -19 -99 -19 -1619 l0 -1570 27 -51 c40 -76 70 -107 140 -145 l63 -34 405
0 405 0 63 34 c70 38 101 70 139 145 22 43 27 68 31 158 2 60 6 108 7 108 1 0
49 -22 106 -49 347 -163 813 -288 1304 -350 308 -39 440 -45 910 -46 511 0
507 -1 688 75 245 102 452 332 532 592 14 49 81 420 161 898 131 788 136 819
130 925 -19 416 -286 756 -693 882 l-88 28 -637 3 c-351 2 -638 5 -638 8 0 2
18 57 39 122 91 273 122 574 86 844 -20 152 -46 243 -106 367 -44 89 -63 116
-137 191 -69 69 -103 95 -162 123 -115 54 -231 70 -333 46z m228 -233 c222
-101 341 -434 305 -851 -20 -233 -62 -393 -157 -597 -52 -111 -54 -120 -43
-154 7 -21 24 -43 44 -55 30 -18 58 -19 719 -19 745 0 762 -1 897 -56 212 -86
382 -280 441 -501 41 -154 37 -199 -110 -1073 -82 -490 -141 -809 -155 -851
-83 -240 -282 -422 -529 -485 -132 -34 -840 -27 -1212 11 -590 62 -1130 208
-1510 408 l-80 42 -3 1166 -2 1167 72 43 c297 176 587 425 751 644 90 120 180
302 213 430 20 81 27 140 34 310 15 322 50 427 151 448 45 10 120 -2 174 -27z
m-1656 -1482 c53 -38 51 33 51 -1585 0 -1664 4 -1550 -65 -1583 -49 -24 -681
-24 -730 0 -70 33 -65 -81 -65 1583 0 1619 -2 1547 51 1585 21 14 66 16 379
16 313 0 358 -2 379 -16z"/>
</g>
</svg>
